<svg xmlns="http://www.w3.org/2000/svg" width="16" height="16" fill="none" viewBox="0 0 16 16">
  <g clip-path="url(#a)">
    <path fill="#FF3F3A" d="M8 15.334c4.044 0 7.334-3.29 7.334-7.334a7.27 7.27 0 0 0-.29-2.044.61.61 0 1 0-1.174.343A6.118 6.118 0 0 1 8 14.111a6.118 6.118 0 0 1-6.11-6.11A6.118 6.118 0 0 1 8 1.888a6.07 6.07 0 0 1 3.408 1.035.611.611 0 0 0 .683-1.013A7.288 7.288 0 0 0 8 .667C3.956.667.666 3.957.666 8c0 4.044 3.29 7.334 7.333 7.334Z"/>
    <path fill="#FF3F3A" d="M14.862 1.529 8 8.39 5.805 6.196a.667.667 0 0 0-.943.942L7.53 9.805a.664.664 0 0 0 .943 0l7.333-7.333a.667.667 0 0 0-.943-.943Z"/>
  </g>
  <defs>
    <clipPath id="a">
      <path fill="#fff" d="M0 0h16v16H0z"/>
    </clipPath>
  </defs>
</svg>
