<svg xmlns="http://www.w3.org/2000/svg" width="24" height="24" fill="none" viewBox="0 0 24 24">
  <path fill="#FF3F3A" fill-rule="evenodd" d="M12 7.75a2 2 0 1 0 0 4 2 2 0 0 0 0-4Zm-4 2a4 4 0 1 1 8 0 4 4 0 0 1-8 0Z" clip-rule="evenodd"/>
  <path fill="#FF3F3A" fill-rule="evenodd" d="M12 3.25c-3.62 0-6.5 2.836-6.5 6.27 0 2.798 1.682 5.625 3.52 7.848A27.9 27.9 0 0 0 12 20.44a27.899 27.899 0 0 0 2.98-3.072c1.838-2.223 3.52-5.05 3.52-7.849 0-3.433-2.88-6.269-6.5-6.269Zm0 18.5-.62.785-.002-.002-.005-.004-.02-.016a13.707 13.707 0 0 1-.322-.267 29.907 29.907 0 0 1-3.552-3.604C5.568 16.333 3.5 13.043 3.5 9.52c0-4.597 3.835-8.27 8.5-8.27s8.5 3.673 8.5 8.27c0 3.523-2.068 6.811-3.98 9.123a29.911 29.911 0 0 1-3.551 3.604 17.519 17.519 0 0 1-.322.266l-.02.016-.005.004-.002.002-.62-.785Zm0 0 .619.785a1 1 0 0 1-1.238 0L12 21.75Z" clip-rule="evenodd"/>
</svg>
