<svg xmlns="http://www.w3.org/2000/svg" width="507" height="454" fill="none" viewBox="0 0 507 454">
  <path fill="#D0F0E4" d="M406.421 453.522H0l166.082-393.37h74.258l166.081 393.37Z"/>
  <path fill="#FFCF2D" fill-rule="evenodd" d="m203.212 22.852 7.382 7.363-.678.675-6.704-6.687-6.703 6.687-.678-.675 7.381-7.363Z" clip-rule="evenodd"/>
  <path fill="#FFCF2D" fill-rule="evenodd" d="M203.69 0v23.528h-.959V0h.959Z" clip-rule="evenodd"/>
  <path fill="#FFCF2D" d="M203.21 72.417c6.262 0 11.339-5.064 11.339-11.31s-5.077-11.31-11.339-11.31c-6.262 0-11.338 5.064-11.338 11.31s5.076 11.31 11.338 11.31Z"/>
  <path fill="#fff" fill-rule="evenodd" d="M203.21 50.274c-5.997 0-10.859 4.85-10.859 10.832 0 5.983 4.862 10.833 10.859 10.833s10.859-4.85 10.859-10.833c0-5.982-4.862-10.832-10.859-10.832Zm-11.817 10.832c0-6.51 5.29-11.788 11.817-11.788 6.526 0 11.817 5.278 11.817 11.788 0 6.51-5.291 11.788-11.817 11.788-6.527 0-11.817-5.277-11.817-11.788Z" clip-rule="evenodd"/>
  <path fill="#9A3B82" fill-rule="evenodd" d="M203.226 30.507c-17.52 0-32.471 10.658-35.671 25.239l-.862 3.928h73.051l-.863-3.944c-1.6-7.293-6.122-13.6-12.457-18.08-6.32-4.48-14.447-7.143-23.198-7.143ZM166.619 55.54c3.316-15.111 18.739-25.99 36.607-25.99 8.943 0 17.265 2.72 23.752 7.32 6.505 4.6 11.181 11.1 12.839 18.655l1.117 5.104h-75.432l1.117-5.089Z" clip-rule="evenodd"/>
  <path fill="#66B0F0" d="M338.266 313.848h-7.537v47.47h7.537v-47.47Z"/>
  <path fill="#9A3B82" d="M475.141 361.318h-42.909c-1.549 0-2.747-1.338-2.556-2.867l5.973-50.291a2.583 2.583 0 0 1 2.555-2.262h42.91c1.549 0 2.747 1.339 2.555 2.868l-5.973 50.29a2.581 2.581 0 0 1-2.555 2.262Z"/>
  <path fill="#fff" d="M451.762 361.318h-33.887a3.474 3.474 0 0 1-3.449-3.871l4.344-36.623a3.48 3.48 0 0 1 3.449-3.058h34.701l-5.158 43.552Z"/>
  <path fill="#FFCF2D" fill-rule="evenodd" d="m419.245 320.882-4.344 36.621v.001a2.997 2.997 0 0 0 2.974 3.337h33.461l5.045-42.596h-34.162a3.002 3.002 0 0 0-2.974 2.637Zm-.951-.113a3.959 3.959 0 0 1 3.925-3.48h35.24l-5.271 44.508h-34.313a3.953 3.953 0 0 1-3.925-4.404v-.001l4.344-36.623Z" clip-rule="evenodd"/>
  <path fill="#fff" d="M455.564 361.318h-32.338a3.474 3.474 0 0 1-3.449-3.871l4.343-36.623a3.481 3.481 0 0 1 3.45-3.058h32.753c1.038 0 1.852.908 1.725 1.943l-4.759 40.063a1.73 1.73 0 0 1-1.725 1.546Z"/>
  <path fill="#FFCF2D" fill-rule="evenodd" d="m424.596 320.882-4.344 36.621v.001a2.997 2.997 0 0 0 2.974 3.337h32.338a1.25 1.25 0 0 0 1.248-1.118v-.003l4.76-40.066v-.002a1.258 1.258 0 0 0-1.249-1.407h-32.754a3.001 3.001 0 0 0-2.973 2.637Zm-.952-.113a3.96 3.96 0 0 1 3.925-3.48h32.754a2.214 2.214 0 0 1 2.2 2.479v.001l-4.758 40.056-.001.002a2.207 2.207 0 0 1-2.2 1.97h-32.338a3.954 3.954 0 0 1-3.926-4.404v-.001l4.344-36.623Z" clip-rule="evenodd"/>
  <path fill="#9A3B82" fill-rule="evenodd" d="M338.268 320.506h14.037v41.29h-14.037v-41.29Zm.958.956v39.378h12.121v-39.378h-12.121Z" clip-rule="evenodd"/>
  <path fill="#9A3B82" fill-rule="evenodd" d="M346.796 320.506h19.371v41.29h-19.371v-41.29Zm.958.956v39.378h17.455v-39.378h-17.455Z" clip-rule="evenodd"/>
  <path fill="#9A3B82" fill-rule="evenodd" d="M363.225 316.078h6.134l19.36 45.719h-6.134l-19.36-45.719Zm1.444.956 18.551 43.807h4.054l-18.55-43.807h-4.055Z" clip-rule="evenodd"/>
  <path fill="#9A3B82" fill-rule="evenodd" d="M371.173 322.879h10.528l16.732 38.916h-10.528l-16.732-38.916Zm1.453.956 15.91 37.005h8.443l-15.909-37.005h-8.444Zm-56.045-3.329h14.149v41.29h-14.149v-41.29Zm.958.956v39.378h12.233v-39.378h-12.233Zm-.958-31.874h62.313v8.825h-62.313v-8.825Zm.958.956v6.913h60.396v-6.913h-60.396Z" clip-rule="evenodd"/>
  <path fill="#FE5244" d="M394.783 284.045H317.06v6.34h77.723v-6.34Z"/>
  <path fill="#FFCF2D" d="M369.519 274.9H317.06v8.985h52.459V274.9Z"/>
  <path fill="#9A3B82" fill-rule="evenodd" d="M316.581 267.557h62.313v7.662h-62.313v-7.662Zm.958.955v5.751h60.396v-5.751h-60.396Z" clip-rule="evenodd"/>
  <path fill="#fff" d="m484.275 250.352-.048.271-7.25 47.311h-67.263l7.25-47.311.096-.669c1.15-2.326 8.176-4.126 16.688-4.126 9.31 0 16.848 2.151 16.848 4.795 0-2.644 7.537-4.795 16.847-4.795 8.991.016 16.321 2.007 16.832 4.524Z"/>
  <path fill="#FFCF2D" fill-rule="evenodd" d="m417.523 250.102-.085.59-7.166 46.764h66.294l7.189-46.911.031-.178c-.119-.41-.527-.884-1.339-1.373-.847-.509-2.046-.98-3.533-1.381-2.97-.801-7.006-1.3-11.471-1.308-4.623 0-8.789.535-11.783 1.388-1.501.427-2.68.927-3.473 1.461-.81.545-1.112 1.05-1.112 1.468h-.958c0-.418-.302-.923-1.112-1.468-.794-.534-1.973-1.034-3.473-1.461-2.995-.853-7.16-1.388-11.784-1.388-4.226 0-8.07.448-10.988 1.177-1.46.365-2.674.797-3.583 1.269-.88.458-1.416.924-1.654 1.351Zm33.073-.787c-.268-.352-.634-.67-1.055-.954-.912-.613-2.199-1.146-3.746-1.587-3.102-.884-7.36-1.424-12.047-1.424-4.286 0-8.211.452-11.221 1.205-1.504.376-2.795.83-3.793 1.349-.983.511-1.748 1.119-2.104 1.838l-.033.068-.107.745-7.334 47.857h68.233L484.7 250.7l.063-.355-.018-.088c-.169-.831-.87-1.52-1.804-2.081-.952-.573-2.244-1.072-3.777-1.486-3.07-.828-7.194-1.332-11.72-1.34h-.001c-4.686 0-8.944.54-12.046 1.424-1.548.441-2.835.974-3.746 1.587-.422.284-.787.602-1.055.954Z" clip-rule="evenodd"/>
  <path fill="#FFCF2D" fill-rule="evenodd" d="m451.085 250.71-7.186 47.311-.948-.143 7.186-47.312.948.144Z" clip-rule="evenodd"/>
  <path fill="#FFCF2D" d="M443.426 297.949c0-2.644-7.538-4.795-16.848-4.795-9.31 0-16.848 2.151-16.848 4.795h33.696Zm33.695 0c0-2.644-7.537-4.795-16.848-4.795-9.31 0-16.847 2.151-16.847 4.795h33.695Z"/>
  <path fill="#FFCF2D" fill-rule="evenodd" d="M482.178 247.793a.479.479 0 0 1 .398.547l-7.279 45.649-.553-.213c-2.936-1.131-8.598-1.942-14.374-1.736-4.624.166-8.77.846-11.733 1.803-1.485.479-2.646 1.019-3.42 1.58-.79.573-1.073 1.088-1.058 1.506a.48.48 0 0 1-.958.035c-.032-.904.581-1.681 1.453-2.314.889-.644 2.156-1.222 3.688-1.717 3.069-.99 7.307-1.68 11.993-1.848 5.517-.197 10.993.516 14.199 1.6l7.096-44.495a.479.479 0 0 1 .548-.397Z" clip-rule="evenodd"/>
  <path fill="#fff" d="M478.912 234.566h-60.396v-13.413a2.389 2.389 0 0 1 2.395-2.389h55.621a2.39 2.39 0 0 1 2.396 2.389v13.413h-.016Z"/>
  <path fill="#9A3B82" fill-rule="evenodd" d="M420.91 219.241a1.911 1.911 0 0 0-1.917 1.912v12.934h59.454v-12.934a1.91 1.91 0 0 0-1.916-1.912H420.91Zm-2.875 1.912a2.868 2.868 0 0 1 2.875-2.868h55.621a2.868 2.868 0 0 1 2.875 2.868v13.89h-61.371v-13.89Z" clip-rule="evenodd"/>
  <path fill="#FFCF2D" d="M483.734 218.126H431.69a1.447 1.447 0 0 1-1.454-1.449v-5.337c0-.812.655-1.449 1.454-1.449h52.044c.814 0 1.453.653 1.453 1.449v5.337c0 .796-.655 1.449-1.453 1.449Z"/>
  <path fill="#FE5244" d="M485.762 204.889h-61.738v5.002h61.738v-5.002Z"/>
  <path fill="#fff" d="M484.643 204.889h-47.126a1.12 1.12 0 0 1-1.118-1.115v-4.03a1.12 1.12 0 0 1 1.118-1.115h47.126c.623 0 1.118.51 1.118 1.115v4.03a1.12 1.12 0 0 1-1.118 1.115Z"/>
  <path fill="#9A3B82" fill-rule="evenodd" d="M437.518 199.106a.641.641 0 0 0-.639.637v4.031c0 .345.285.637.639.637h47.126a.642.642 0 0 0 .639-.637v-4.031a.642.642 0 0 0-.639-.637h-47.126Zm-1.597.637c0-.889.73-1.593 1.597-1.593h47.126c.892 0 1.597.729 1.597 1.593v4.031c0 .864-.705 1.593-1.597 1.593h-47.126a1.599 1.599 0 0 1-1.597-1.593v-4.031Zm-99.523-14.862h19.084v50.163h-19.084v-50.163Zm.959.956v48.251h17.167v-48.251h-17.167Z" clip-rule="evenodd"/>
  <path fill="#fff" d="M336.879 185.359h-7.314v49.207h7.314v-49.207Z"/>
  <path fill="#9A3B82" fill-rule="evenodd" d="M329.086 184.881h8.272v50.163h-8.272v-50.163Zm.958.956v48.251h6.356v-48.251h-6.356Z" clip-rule="evenodd"/>
  <path fill="#fff" d="M329.564 185.359h-12.296v49.207h12.296v-49.207Z"/>
  <path fill="#9A3B82" fill-rule="evenodd" d="M316.789 184.881h13.255v50.163h-13.255v-50.163Zm.958.956v48.251h11.338v-48.251h-11.338Zm39.174 7.933h16.848v41.29h-16.848v-41.29Zm.958.955v39.379h14.931v-39.379h-14.931Z" clip-rule="evenodd"/>
  <path fill="#fff" d="M358.55 234.565h-6.26a1.12 1.12 0 0 1-1.118-1.115v-38.12a1.12 1.12 0 0 1 1.118-1.115h6.26a1.12 1.12 0 0 1 1.118 1.115v38.12a1.13 1.13 0 0 1-1.118 1.115Z"/>
  <path fill="#9A3B82" fill-rule="evenodd" d="M352.289 194.694a.64.64 0 0 0-.638.637v38.12a.64.64 0 0 0 .638.637h6.26a.652.652 0 0 0 .639-.644v-38.113a.641.641 0 0 0-.639-.637h-6.26Zm-1.597.637c0-.865.705-1.593 1.597-1.593h6.26c.867 0 1.597.704 1.597 1.593v38.132c-.022.869-.719 1.581-1.597 1.581h-6.26a1.598 1.598 0 0 1-1.597-1.593v-38.12Z" clip-rule="evenodd"/>
  <path fill="#9A3B82" d="M373.289 194.248v22.111l-8.607-22.111h8.607Z"/>
  <path fill="#fff" d="M410.082 234.566h-25.424c-.559 0-1.07-.35-1.261-.86l-16.513-42.405a1.35 1.35 0 0 1 1.262-1.848h25.423c.559 0 1.07.351 1.262.86l16.512 42.405a1.35 1.35 0 0 1-1.261 1.848Z"/>
  <path fill="#FFCF2D" fill-rule="evenodd" d="M368.147 189.93a.873.873 0 0 0-.816 1.196l.001.001 16.513 42.408.001.003c.12.319.45.55.813.55h25.424a.873.873 0 0 0 .815-1.196l-16.514-42.409-.001-.003a.876.876 0 0 0-.813-.55h-25.423Zm-1.708 1.544a1.828 1.828 0 0 1 1.708-2.499h25.423c.753 0 1.445.468 1.709 1.167l.001.003 16.51 42.398a1.828 1.828 0 0 1-1.707 2.5h-25.424a1.833 1.833 0 0 1-1.709-1.167l-.001-.003-16.51-42.398v-.001Z" clip-rule="evenodd"/>
  <path fill="#fff" d="M414.234 234.566H388.81c-.558 0-1.07-.35-1.261-.86l-16.512-42.405a1.35 1.35 0 0 1 1.261-1.848h25.423c.559 0 1.07.351 1.262.86l16.512 42.405a1.35 1.35 0 0 1-1.261 1.848Z"/>
  <path fill="#FFCF2D" fill-rule="evenodd" d="M372.299 189.93a.872.872 0 0 0-.815 1.196v.001l16.514 42.408.001.003c.119.319.449.55.813.55h25.423a.873.873 0 0 0 .815-1.196l-16.514-42.409-.001-.003a.876.876 0 0 0-.813-.55h-25.423Zm-1.708 1.544a1.828 1.828 0 0 1 1.708-2.499h25.423a1.835 1.835 0 0 1 1.711 1.17l16.509 42.398a1.828 1.828 0 0 1-1.707 2.5h-25.423a1.834 1.834 0 0 1-1.71-1.167l-.001-.003-16.509-42.398-.001-.001Zm73.529-84.142 15.356 53.426-.463.13a28.155 28.155 0 0 1-7.619 1.054c-15.388 0-27.851-12.433-27.851-27.782 0-12.659 8.499-23.357 20.117-26.695l.46-.133Zm-.655 1.188c-10.982 3.371-18.964 13.585-18.964 25.64 0 14.822 12.034 26.826 26.893 26.826 2.374 0 4.694-.314 6.895-.892l-14.824-51.574Z" clip-rule="evenodd"/>
  <path fill="#FFCF2D" fill-rule="evenodd" d="M450.916 171.196v-9.733h.958v9.733h-.958Z" clip-rule="evenodd"/>
  <path fill="#fff" d="M451.394 157.289c12.806 0 23.187-10.355 23.187-23.13 0-12.774-10.381-23.13-23.187-23.13-12.807 0-23.188 10.356-23.188 23.13 0 12.775 10.381 23.13 23.188 23.13Z"/>
  <path fill="#3FB1B5" fill-rule="evenodd" d="M451.394 111.509c-12.541 0-22.708 10.141-22.708 22.652 0 12.51 10.167 22.652 22.708 22.652 12.542 0 22.709-10.142 22.709-22.652 0-12.511-10.167-22.652-22.709-22.652Zm-23.666 22.652c0-13.039 10.595-23.608 23.666-23.608s23.667 10.569 23.667 23.608c0 13.038-10.596 23.608-23.667 23.608-13.071 0-23.666-10.57-23.666-23.608Z" clip-rule="evenodd"/>
  <path fill="#fff" d="M461.087 171.133H441.78l9.582-4.795 9.725 4.795Z"/>
  <path fill="#FFCF2D" fill-rule="evenodd" d="m451.36 165.805 11.778 5.806h-23.381l11.603-5.806Zm.004 1.067-7.56 3.784h15.233l-7.673-3.784Z" clip-rule="evenodd"/>
  <path fill="#9A3B82" fill-rule="evenodd" d="M316.581 170.719H486.24v283.279h-9.693v-21.027c0-4.308-3.507-7.806-7.825-7.806H334.004c-4.319 0-7.825 3.498-7.825 7.806v21.027h-9.598V170.719Zm.958.956v281.367h7.681v-20.071c0-4.836 3.936-8.762 8.784-8.762h134.718c4.847 0 8.783 3.926 8.783 8.762v20.071h7.777V171.675H317.539Z" clip-rule="evenodd"/>
  <path fill="#3FB1B5" fill-rule="evenodd" d="M328.862 369.124a2.853 2.853 0 0 0-2.859 2.851v41.561a2.853 2.853 0 0 0 2.859 2.851H473.64a2.853 2.853 0 0 0 2.859-2.851v-41.561a2.853 2.853 0 0 0-2.859-2.851H328.862Zm-3.817 2.851a3.81 3.81 0 0 1 3.817-3.807H473.64a3.81 3.81 0 0 1 3.817 3.807v41.561a3.81 3.81 0 0 1-3.817 3.807H328.862a3.81 3.81 0 0 1-3.817-3.807v-41.561Z" clip-rule="evenodd"/>
  <path fill="#9A3B82" d="M408.884 132.424v38.773h-13.606l13.606-38.773Z"/>
  <path fill="#fff" d="m408.883 132.424-.095.287-13.431 38.486h-62.44l13.43-38.486.431-1.227c2.013-2.883 7.586-4.986 14.229-5.097h.639c7.761 0 14.676 2.692 15.937 6.228 1.246-3.536 7.857-6.228 15.618-6.228 7.602 0 14.261 2.596 15.682 6.037Z"/>
  <path fill="#FFCF2D" fill-rule="evenodd" d="M361.004 125.908h.643c3.932 0 7.661.681 10.581 1.821 2.422.946 4.371 2.241 5.352 3.797.954-1.552 2.831-2.848 5.191-3.795 2.845-1.142 6.5-1.823 10.432-1.823 3.851 0 7.476.657 10.331 1.761 2.83 1.093 5.006 2.667 5.794 4.572l.067.165-.153.458-13.543 38.81h-63.455l13.652-39.121.453-1.289.037-.053c1.086-1.556 3.087-2.848 5.607-3.765 2.532-.92 5.64-1.481 9.007-1.538h.004Zm.008.956c-3.274.055-6.273.601-8.691 1.48-2.398.873-4.175 2.054-5.111 3.361l-.409 1.163-13.209 37.851h61.426l13.316-38.16.002-.006.036-.106c-.694-1.476-2.523-2.859-5.184-3.887-2.73-1.055-6.235-1.696-9.985-1.696-3.83 0-7.361.665-10.074 1.754-2.739 1.099-4.54 2.585-5.092 4.155l-.45 1.275-.454-1.273c-.558-1.565-2.43-3.053-5.254-4.156-2.794-1.09-6.402-1.755-10.232-1.755h-.635Z" clip-rule="evenodd"/>
  <path fill="#FFCF2D" fill-rule="evenodd" d="M377.729 132.165a.478.478 0 0 1 .29.611l-13.558 37.785a.48.48 0 0 1-.903-.322l13.558-37.785a.48.48 0 0 1 .613-.289Z" clip-rule="evenodd"/>
  <path fill="#FFCF2D" d="M363.978 170.719h-31.061c1.15-3.584 7.601-6.34 15.363-6.34 7.793 0 14.548 2.756 15.698 6.34Zm31.3 0h-31.06c1.15-3.584 7.601-6.34 15.362-6.34 7.793 0 14.548 2.756 15.698 6.34Z"/>
  <path fill="#9A3B82" fill-rule="evenodd" d="M393.122 379.175c-.995 0-1.789.803-1.789 1.784a.478.478 0 0 1-.958 0 2.741 2.741 0 0 1 2.747-2.74h16.943a2.742 2.742 0 0 1 2.747 2.74.478.478 0 0 1-.958 0c0-.993-.805-1.784-1.789-1.784h-16.943Zm-76.541-81.224c0-.264.215-.478.479-.478h168.701a.478.478 0 1 1 0 .955H317.06a.478.478 0 0 1-.479-.477Zm0-63.385c0-.264.215-.478.479-.478h168.701a.479.479 0 1 1 0 .956H317.06a.479.479 0 0 1-.479-.478Zm0 126.754c0-.264.215-.478.479-.478h168.701a.479.479 0 1 1 0 .956H317.06a.479.479 0 0 1-.479-.478Zm21.398-249.77c.249.088.381.36.294.609l-20.538 58.56h167.686l20.648-58.875a.48.48 0 0 1 .904.315l-20.76 59.195a.479.479 0 0 1-.452.32H317.06a.48.48 0 0 1-.452-.635l20.76-59.195a.48.48 0 0 1 .611-.294Z" clip-rule="evenodd"/>
  <path fill="#fff" d="M145.835 432.941v17.332c0 1.8 1.453 3.25 3.258 3.25h43.437s.255-8.045-6.356-10.291c-11.227-3.807-16.465-10.291-16.465-10.291h-23.874Z"/>
  <path fill="#FE5244" fill-rule="evenodd" d="M145.836 432.463h24.103l.144.178.002.002a15.518 15.518 0 0 0 .052.063l.177.203c.16.178.402.44.729.767a31.28 31.28 0 0 0 2.982 2.605c2.678 2.069 6.748 4.614 12.303 6.498h.001c3.497 1.188 5.167 3.914 5.957 6.289a14.57 14.57 0 0 1 .721 4.091c.003.118.004.21.003.274v.075l-.001.02v.009l-.479-.015.479.015-.015.463h-43.901a3.726 3.726 0 0 1-3.737-3.728v-17.331h.48v-.478Zm.479.956v16.853a2.768 2.768 0 0 0 2.778 2.772h42.952a13.694 13.694 0 0 0-.668-3.675c-.735-2.208-2.243-4.627-5.357-5.685-5.671-1.923-9.833-4.524-12.581-6.648a32.292 32.292 0 0 1-3.075-2.685c-.34-.341-.594-.615-.765-.806l-.111-.126h-23.173Z" clip-rule="evenodd"/>
  <path fill="#FE5244" fill-rule="evenodd" d="M175.042 434.707c.445.057.908.215 1.267.573.342.341.539.734.582 1.162.043.42-.065.83-.252 1.207-.367.741-1.084 1.455-1.873 2.076-1.584 1.245-3.68 2.282-4.639 2.55l-.258-.921c.813-.226 2.797-1.196 4.304-2.38.756-.594 1.336-1.201 1.607-1.748.132-.268.178-.495.158-.687-.019-.184-.101-.379-.306-.583-.16-.16-.397-.261-.712-.301a3.562 3.562 0 0 0-1.022.045 6.56 6.56 0 0 0-1.179.323l-.073.028-.017.006-.004.002-.184-.441-.184-.441.001-.001.003-.001.007-.003.025-.01.089-.034a7.444 7.444 0 0 1 1.353-.369 4.46 4.46 0 0 1 1.307-.052Zm7.297 2.767c-1.164-.936-2.565-.445-3.499.094a8.367 8.367 0 0 0-1.563 1.184l-.098.095-.026.027-.008.008-.002.002-.001.001.345.332.345.331.001-.001.004-.004.02-.02.082-.08c.073-.07.18-.169.315-.284.271-.231.644-.52 1.066-.763.886-.512 1.761-.706 2.418-.177l.001.001c.227.181.325.36.359.528.036.175.012.391-.095.656-.222.544-.75 1.172-1.46 1.801-.7.619-1.532 1.2-2.298 1.657-.776.462-1.448.774-1.829.88l.258.921c.505-.141 1.265-.506 2.062-.98a16.721 16.721 0 0 0 2.443-1.763c.742-.658 1.406-1.405 1.712-2.157.155-.383.23-.794.146-1.205-.085-.418-.323-.784-.698-1.084Z" clip-rule="evenodd"/>
  <path fill="#FE5244" d="m171.051 434.343-25.216 7.822v-9.224h23.89s.431.542 1.326 1.402Z"/>
  <path fill="#fff" d="M200.29 432.941v17.332c0 1.8 1.453 3.25 3.258 3.25h43.437s.255-8.045-6.356-10.291c-11.227-3.807-16.465-10.291-16.465-10.291H200.29Z"/>
  <path fill="#FE5244" fill-rule="evenodd" d="M200.291 432.463h24.103l.144.178.002.002a31.316 31.316 0 0 0 3.941 3.638c2.677 2.069 6.747 4.614 12.303 6.498 3.497 1.188 5.167 3.914 5.957 6.289a14.57 14.57 0 0 1 .721 4.091c.003.118.004.21.003.274v.075l-.001.02v.009l-.479-.015.479.015-.015.463h-43.901a3.725 3.725 0 0 1-3.736-3.728v-17.331h.479v-.478Zm.479.956v16.853a2.768 2.768 0 0 0 2.778 2.772H246.5a13.694 13.694 0 0 0-.668-3.675c-.735-2.208-2.243-4.627-5.357-5.685-5.671-1.923-9.833-4.524-12.581-6.648a32.292 32.292 0 0 1-3.075-2.685 21.638 21.638 0 0 1-.765-.806l-.111-.126H200.77Z" clip-rule="evenodd"/>
  <path fill="#FE5244" fill-rule="evenodd" d="M229.496 434.707c.445.057.909.215 1.267.573.342.341.539.734.583 1.162.042.42-.066.83-.253 1.207-.366.741-1.083 1.455-1.873 2.076-1.584 1.245-3.679 2.282-4.639 2.55l-.258-.921c.813-.226 2.798-1.196 4.304-2.38.756-.594 1.336-1.201 1.607-1.748.132-.268.178-.495.158-.687-.018-.184-.101-.379-.306-.583-.16-.16-.397-.261-.712-.301a3.562 3.562 0 0 0-1.022.045 6.56 6.56 0 0 0-1.179.323c-.032.012-.057.021-.072.028a.184.184 0 0 1-.018.006l-.003.002-.185-.441-.184-.441.002-.001.002-.001.007-.003.025-.01.089-.034a7.444 7.444 0 0 1 1.353-.369 4.46 4.46 0 0 1 1.307-.052Zm7.298 2.767c-1.164-.936-2.565-.445-3.499.094a8.367 8.367 0 0 0-1.563 1.184l-.098.095-.026.027-.008.008-.002.002-.001.001.345.332.345.331.001-.001.004-.004.02-.02.082-.08c.073-.07.18-.169.315-.284.271-.231.644-.52 1.066-.763.886-.512 1.761-.706 2.418-.177l.001.001c.227.181.325.36.359.528.036.175.012.391-.095.656-.222.544-.75 1.172-1.46 1.801-.7.619-1.532 1.2-2.298 1.657-.776.462-1.448.774-1.829.88l.258.921c.505-.141 1.265-.506 2.062-.98a16.721 16.721 0 0 0 2.443-1.763c.742-.658 1.406-1.405 1.712-2.157.155-.383.229-.794.146-1.205-.085-.418-.323-.784-.698-1.084Z" clip-rule="evenodd"/>
  <path fill="#FE5244" d="m225.506 434.343-25.216 7.822v-9.224h23.89s.431.542 1.326 1.402Z"/>
  <path fill="#3FB1B5" d="m157.576 260.422-15.73 164.268h32.897l16.528-79.601 6.755 16.965v62.636h34.254v-70.235l-18.269-94.033h-56.435Z"/>
  <path fill="#9A3B82" fill-rule="evenodd" d="m158.936 424.632 15.298-124.81.951.116-15.298 124.81-.951-.116Zm34.621-156.361 21.477 86.126v70.293h-.958v-70.176l-21.449-86.012.93-.231Z" clip-rule="evenodd"/>
  <path fill="#fff" fill-rule="evenodd" d="m177.494 302.495 20.505 59.402-.906.311-20.505-59.402a4.599 4.599 0 0 0-4.354-3.087v-.955a5.557 5.557 0 0 1 5.26 3.731Z" clip-rule="evenodd"/>
  <path fill="#9A3B82" d="m154.973 287.582 2.603-27.16h56.435l1.613 8.347-60.651 18.813Zm77.371 145.359h-34.446a2.348 2.348 0 0 1-2.347-2.342v-3.568a2.349 2.349 0 0 1 2.347-2.342h34.446a2.349 2.349 0 0 1 2.348 2.342v3.568c-.016 1.291-1.054 2.342-2.348 2.342Zm-57.011 0h-34.446a2.348 2.348 0 0 1-2.348-2.342v-3.568a2.349 2.349 0 0 1 2.348-2.342h34.446a2.349 2.349 0 0 1 2.347 2.342v3.568c-.016 1.291-1.054 2.342-2.347 2.342Z"/>
  <path fill="#66B0F0" d="m267.267 265.234 10.795 40.286-53.817 14.353-10.811-40.318a4.687 4.687 0 0 0-2.188-2.852 4.699 4.699 0 0 0-3.577-.478c-2.507.669-4.008 3.25-3.338 5.751l10.812 40.318-1.182.319-10.795-40.286c-.863-3.202.99-6.484 4.152-7.44l.191-.047 52.252-13.939c3.274-.86 6.628 1.083 7.506 4.333Z"/>
  <path fill="#9A3B82" d="m214.632 279.284 10.795 40.286-1.182.319-10.811-40.318a4.687 4.687 0 0 0-2.188-2.852 4.699 4.699 0 0 0-3.577-.478c-2.507.67-4.008 3.25-3.338 5.751l10.812 40.318-1.182.319-10.795-40.286c-.863-3.202.99-6.484 4.152-7.44a6.135 6.135 0 0 1 7.314 4.381Z"/>
  <path fill="#fff" d="m213.434 279.555 10.141 37.849-9.103 2.422-10.14-37.849a4.692 4.692 0 0 1 3.338-5.751 4.69 4.69 0 0 1 3.577.478 4.683 4.683 0 0 1 2.187 2.851Z"/>
  <path fill="#FFCF2D" d="m267.426 286.58-24.481 8.41-19.323-34.567h-74.896c-12.728 0-22.246-11.677-19.643-24.102l7.793-37.339c2.444-11.693 12.776-20.072 24.737-20.072h51.214c12.408 0 22.98 8.985 24.944 21.203l7.713 36.351 21.942 50.116Z"/>
  <path fill="#fff" fill-rule="evenodd" d="m137.346 199.079-7.793 37.339c-2.541 12.128 6.75 23.526 19.173 23.526h75.178l19.265 34.464 23.611-8.112-21.754-49.686-7.725-36.411-.002-.011c-1.927-11.986-12.298-20.801-24.471-20.801h-51.214c-11.734 0-21.871 8.221-24.268 19.692Zm-.938-.195c2.49-11.914 13.018-20.452 25.206-20.452h51.214c12.639 0 23.409 9.149 25.415 21.593l7.701 36.292 22.13 50.545-25.351 8.71-19.381-34.672h-74.616c-13.031 0-22.776-11.955-20.111-24.677l7.793-37.339Z" clip-rule="evenodd"/>
  <path fill="#fff" d="M144.734 260.023c-8.815-1.768-15.362-9.255-16.033-18.081a9.752 9.752 0 0 1 2.22-1.146c5.797-2.135 12.424 1.369 14.835 7.821 1.486 4.046.975 8.284-1.022 11.406Z"/>
  <path fill="#E57281" d="M200.499 156.512v22.413h-24.801l5.717-14.91 19.084-7.503Z"/>
  <path fill="#9A3B82" d="M206.199 147.082c-.016 0-.048.016-.064.016l-7.362 1.943a8.03 8.03 0 0 0-5.525 5.098h-2.827a3.24 3.24 0 0 0-3.241 3.233v.048a3.229 3.229 0 0 0 2.954 3.218l-.016.016s-1.309 6.212-8.959 4.126c0 0 .304-16.344.623-21.426.271-4.189 22.549-12.122 24.609-8.745 1.82 2.995-.288 4.396-2.076 5.018 3.162-.669 9.134-1.561 9.741 1.099.703 3.09-5.605 5.766-7.857 6.356Z"/>
  <path fill="#E57281" d="M207.637 158.535h-.782l.223 3.823c.16 2.74-2.044 5.066-4.791 5.066h-3.449c-3.322 0-6.02-2.692-6.02-6.006v-.748h-2.38a3.241 3.241 0 0 1-3.242-3.234v-.048a3.241 3.241 0 0 1 3.242-3.234h2.827a7.997 7.997 0 0 1 5.525-5.097l7.362-1.944 2.523 10.084c.256.637-.351 1.338-1.038 1.338Z"/>
  <path fill="#9A3B82" fill-rule="evenodd" d="M193.608 161.324c.219.021.38.215.359.434-.152 1.598.567 2.979 1.74 3.976 1.179 1.002 2.796 1.594 4.363 1.594a.399.399 0 1 1 0 .796c-1.755 0-3.556-.658-4.88-1.783-1.33-1.13-2.2-2.751-2.017-4.658a.399.399 0 0 1 .435-.359Zm-3.983-5.594c0-.22.179-.398.399-.398a2.645 2.645 0 0 1 2.651 2.644.4.4 0 0 1-.798 0 1.848 1.848 0 0 0-1.853-1.847.4.4 0 0 1-.399-.399Z" clip-rule="evenodd"/>
  <path fill="#9A3B82" d="M204.924 155.699c.326 0 .591-.549.591-1.226 0-.678-.265-1.227-.591-1.227-.326 0-.591.549-.591 1.227 0 .677.265 1.226.591 1.226Z"/>
  <path fill="#9A3B82" fill-rule="evenodd" d="m202.369 151.892-.242-.317a.398.398 0 1 0 .484.633l.003-.001a.101.101 0 0 1 .013-.01l.059-.042c.054-.038.136-.092.243-.158.216-.133.533-.311.936-.49a8.112 8.112 0 0 1 3.279-.714.4.4 0 0 0 0-.797 8.928 8.928 0 0 0-3.604.783c-.44.196-.789.392-1.03.54a6.45 6.45 0 0 0-.374.249l-.006.005-.002.001-.001.001.242.317Z" clip-rule="evenodd"/>
  <path fill="#fff" d="M194.767 270.633s19.562.844 26.445-14.814l-3.641-6.643-10.875 4.173-11.929 17.284Z"/>
  <path fill="#FE5244" fill-rule="evenodd" d="m217.79 248.58 3.955 7.216-.095.215c-3.517 8.002-10.274 11.775-16.103 13.545a37.24 37.24 0 0 1-7.576 1.441 32.67 32.67 0 0 1-2.344.12 19.482 19.482 0 0 1-.819-.004l-.045-.001-.012-.001h-.005l.02-.477-.02.477-.865-.037 12.504-18.117 11.405-4.377Zm-22.116 21.581a33.144 33.144 0 0 0 2.216-.116 36.353 36.353 0 0 0 7.378-1.404c5.621-1.706 12.019-5.29 15.41-12.8l-3.327-6.069-10.345 3.971-11.332 16.418Z" clip-rule="evenodd"/>
  <path fill="#FE5244" d="M210.433 174.816a3.936 3.936 0 0 0-2.443 1.131 3.883 3.883 0 0 0-1.15 2.756v78.486c0 7.487-6.084 13.557-13.59 13.557h-30.166c-8.113 0-14.373-7.025-13.51-15.006v-.016l10.859-74.504a7.491 7.491 0 0 1 7.426-6.404h42.574Z"/>
  <path fill="#FE5244" fill-rule="evenodd" d="M160.907 181.289h-.001l-10.854 74.469v.007l-.002.025c-.832 7.7 5.207 14.477 13.033 14.477h30.167c7.241 0 13.11-5.855 13.11-13.078v-78.486a4.36 4.36 0 0 1 1.643-3.409h-40.145a7.011 7.011 0 0 0-6.951 5.995Zm49.526-6.473v-.478h-42.575a7.97 7.97 0 0 0-7.899 6.812l-10.865 74.539v.025c-.876 8.251 5.599 15.509 13.989 15.509h30.167c7.77 0 14.069-6.283 14.069-14.034v-78.486c0-.949.391-1.801 1.009-2.418a3.454 3.454 0 0 1 2.145-.993l-.04-.476Z" clip-rule="evenodd"/>
  <path fill="#fff" d="M207.397 174.817a3.93 3.93 0 0 0-2.443 1.131 3.812 3.812 0 0 0-1.102 2.214c-.016.175-.032.35-.032.526l-.638 6.005-7.666 72.481c0 7.487-6.084 13.556-13.59 13.556h-18.828c-8.112 0-14.372-7.025-13.51-15.006v-.016l4.903-33.675 5.956-40.828c.048-.351.128-.701.224-1.052a7.49 7.49 0 0 1 7.186-5.352h39.54v.016Z"/>
  <path fill="#FE5244" fill-rule="evenodd" d="M161.13 180.283a7.759 7.759 0 0 0-.21.985v.003l-5.957 40.83-4.898 33.641v.007l-.003.026c-.832 7.699 5.208 14.476 13.034 14.476h18.828c7.241 0 13.111-5.855 13.111-13.078v-.025l7.668-72.506.636-5.981a6.54 6.54 0 0 1 .033-.534l.002-.018.001-.009a4.292 4.292 0 0 1 1.238-2.491c.118-.117.242-.228.372-.331h-37.13a7.011 7.011 0 0 0-6.725 5.005Zm-.921-.265a7.97 7.97 0 0 1 7.646-5.696h40.019v.933l-.438.037a3.451 3.451 0 0 0-2.145.993 3.34 3.34 0 0 0-.965 1.929 5.242 5.242 0 0 0-.029.473v.025l-.641 6.031-7.663 72.455c-.014 7.74-6.307 14.009-14.069 14.009h-18.828c-8.39 0-14.866-7.258-13.989-15.509v-.025l4.908-33.71 5.956-40.824v-.002c.051-.377.137-.748.236-1.11l.001-.005.001-.004Z" clip-rule="evenodd"/>
  <path fill="#FFCF2D" d="m200.675 190.444-2.858 21.393c-.943 4.381-4.36 6.723-9.31 7.519l-33.856 4.907 4.935-33.835h41.089v.016Z"/>
  <path fill="#FE5244" d="M206.185 174.817h-.846a3.214 3.214 0 0 0-3.178 2.58l-4.983 32.067a9.526 9.526 0 0 1-9.31 7.519h-31.156c-3.769 0-6.58-3.473-5.765-7.153l6.004-27.208c1.007-4.556 5.063-7.805 9.742-7.805h39.492Z"/>
  <path fill="#FE5244" fill-rule="evenodd" d="M205.342 174.338h.844v.956h-.91a2.736 2.736 0 0 0-2.643 2.186l-4.982 32.07-.003.013a10.007 10.007 0 0 1-9.779 7.897h-31.156c-4.074 0-7.114-3.754-6.233-7.733l6.004-27.208c1.055-4.775 5.306-8.181 10.21-8.181h38.648Zm-2.509.956h-36.139c-4.455 0-8.316 3.094-9.274 7.43l-6.004 27.209c-.749 3.38 1.833 6.571 5.297 6.571h31.156a9.048 9.048 0 0 0 8.839-7.128l4.982-32.063.002-.01a3.684 3.684 0 0 1 1.141-2.009Z" clip-rule="evenodd"/>
  <path fill="#fff" d="m180.506 225.902 7.937-48.41a2.036 2.036 0 0 1 1.996-1.705 2.022 2.022 0 0 1 1.996 2.358l-7.937 48.41a2.036 2.036 0 0 1-1.996 1.705 2.022 2.022 0 0 1-1.996-2.358Z"/>
  <path fill="#FE5244" fill-rule="evenodd" d="m188.916 177.57-7.937 48.411v.001a1.544 1.544 0 0 0 1.524 1.801c.75 0 1.401-.558 1.523-1.304l7.937-48.41v-.002a1.544 1.544 0 0 0-1.523-1.801c-.751 0-1.401.559-1.524 1.304Zm-.945-.154a2.514 2.514 0 0 1 2.469-2.105 2.5 2.5 0 0 1 2.468 2.913v.001l-7.936 48.409a2.516 2.516 0 0 1-2.469 2.105 2.5 2.5 0 0 1-2.469-2.913v-.001l7.937-48.409Z" clip-rule="evenodd"/>
  <path fill="#fff" d="m162.763 225.902 7.937-48.41a2.036 2.036 0 0 1 1.996-1.705 2.022 2.022 0 0 1 1.996 2.358l-7.937 48.41a2.037 2.037 0 0 1-1.996 1.705 2.022 2.022 0 0 1-1.996-2.358Z"/>
  <path fill="#FE5244" fill-rule="evenodd" d="m171.174 177.57-7.937 48.411v.001a1.544 1.544 0 0 0 1.524 1.801c.75 0 1.4-.558 1.523-1.304l7.937-48.41v-.002a1.544 1.544 0 0 0-1.524-1.801c-.75 0-1.4.559-1.523 1.304Zm-.945-.154a2.514 2.514 0 0 1 2.468-2.105 2.5 2.5 0 0 1 2.469 2.913v.001l-7.936 48.409a2.516 2.516 0 0 1-2.469 2.105 2.5 2.5 0 0 1-2.469-2.913v-.001l7.937-48.409Z" clip-rule="evenodd"/>
  <path fill="#fff" d="m214.664 178.942-7.809.032v-.271c0-1.083.432-2.055 1.15-2.756a3.897 3.897 0 0 1 2.444-1.131h.638c1.965.16 3.514 1.816 3.577 4.126Z"/>
  <path fill="#FE5244" fill-rule="evenodd" d="M210.429 174.338h.678l.02.001c2.237.182 3.947 2.066 4.017 4.589l.013.49-8.78.035v-.75c0-1.213.483-2.306 1.292-3.096a4.372 4.372 0 0 1 2.74-1.267l.02-.002Zm.041.956a3.412 3.412 0 0 0-2.125.991l-.002.002-.002.002a3.33 3.33 0 0 0-1 2.205l6.806-.028c-.241-1.82-1.531-3.038-3.079-3.172h-.598Z" clip-rule="evenodd"/>
  <path fill="#E57281" d="m264.503 287.584 6.579 16.933c1.054 2.724-.479 5.751-3.29 6.531l-14.452 3.951a2.713 2.713 0 0 1-2.491-.558l-1.469-1.274 3.002-.796a2.903 2.903 0 0 0 2.156-2.947l-.336-3.378a2.902 2.902 0 0 0-2.81-2.771h.159c-1.836-.064-3.625-1.195-4.343-2.884l-2.3-6.101 19.595-6.706Z"/>
  <path fill="#fff" fill-rule="evenodd" d="M244.386 294.503a.48.48 0 0 1 .628.253l2.459 5.783a4.256 4.256 0 0 0 3.759 2.592 3.383 3.383 0 0 1 3.274 3.228v.001l.175 3.694c.076 1.623-.996 2.871-2.511 3.272h-.001l-2.361.636a.478.478 0 1 1-.25-.922l2.365-.638h.001c1.136-.3 1.852-1.187 1.8-2.304l-.176-3.696v-.001a2.425 2.425 0 0 0-2.347-2.315h-.001a5.213 5.213 0 0 1-4.609-3.174l-2.459-5.782a.478.478 0 0 1 .254-.627Zm15.543 10.015a.478.478 0 0 1 .501.455l.224 4.716a4.184 4.184 0 0 1-3.119 4.243.478.478 0 1 1-.245-.924 3.23 3.23 0 0 0 2.407-3.275v-.001l-.224-4.714a.48.48 0 0 1 .456-.5Zm6.116-1.576a.479.479 0 0 1 .502.455l.223 4.716a4.186 4.186 0 0 1-3.119 4.243.477.477 0 1 1-.244-.924 3.23 3.23 0 0 0 2.406-3.275v-.001l-.223-4.714a.477.477 0 0 1 .455-.5Z" clip-rule="evenodd"/>
  <path fill="#fff" fill-rule="evenodd" d="m212.212 237.239-3.864-20.167.941-.179 3.864 20.167a32.297 32.297 0 0 0 3.525 9.685l.001.002 26.474 47.661 24.101-8.28.312.903-24.861 8.542-26.864-48.362v-.001a33.214 33.214 0 0 1-3.629-9.971Z" clip-rule="evenodd"/>
  <path fill="#fff" d="m224.995 262.718-8.735-15.739a33.572 33.572 0 0 1-3.274-8.443 11.583 11.583 0 0 1 2.603-.541c6.899-.606 13.015 5.177 13.67 12.903.383 4.683-1.325 9-4.264 11.82Z"/>
</svg>
