<svg xmlns="http://www.w3.org/2000/svg" width="18" height="14" fill="none" viewBox="0 0 18 14">
  <path fill="#FF3F3A" d="M17.75 1.81a7.419 7.419 0 0 1-2.061.542 3.483 3.483 0 0 0 1.578-1.9 7.435 7.435 0 0 1-2.281.834A3.655 3.655 0 0 0 12.366.2c-1.983 0-3.59 1.54-3.59 3.437 0 .269.03.532.092.783C5.885 4.277 3.24 2.908 1.47.828a3.301 3.301 0 0 0-.485 1.728c0 1.193.634 2.245 1.596 2.86a3.712 3.712 0 0 1-1.626-.43v.042c0 1.665 1.238 3.055 2.88 3.37a3.767 3.767 0 0 1-.946.121c-.232 0-.456-.022-.676-.064.457 1.367 1.782 2.36 3.353 2.388a7.409 7.409 0 0 1-4.459 1.469c-.29 0-.575-.017-.856-.047a10.476 10.476 0 0 0 5.503 1.546c6.604 0 10.213-5.237 10.213-9.78l-.012-.444A7.01 7.01 0 0 0 17.75 1.81Z"/>
</svg>
