<svg xmlns="http://www.w3.org/2000/svg" width="20" height="20" viewBox="0 0 20 20">
  <path d="M10.176 8.752h8.23c.09.507.135.992.135 1.453 0 1.642-.344 3.108-1.033 4.399a7.458 7.458 0 0 1-2.945 3.025c-1.275.726-2.738 1.09-4.387 1.09a8.57 8.57 0 0 1-3.394-.687A8.718 8.718 0 0 1 4 16.176a8.719 8.719 0 0 1-1.856-2.781A8.57 8.57 0 0 1 1.458 10c0-1.188.229-2.32.687-3.394A8.717 8.717 0 0 1 4 3.826 8.718 8.718 0 0 1 6.78 1.97a8.57 8.57 0 0 1 3.395-.687c2.27 0 4.218.76 5.845 2.282l-2.37 2.281c-.93-.9-2.089-1.35-3.473-1.35-.977 0-1.879.245-2.708.737A5.437 5.437 0 0 0 5.5 7.237 5.456 5.456 0 0 0 4.773 10c0 .999.242 1.92.726 2.764a5.437 5.437 0 0 0 1.97 2.003 5.21 5.21 0 0 0 2.707.738c.658 0 1.263-.09 1.816-.272.552-.182 1.006-.409 1.362-.681a4.91 4.91 0 0 0 .93-.931c.266-.348.46-.678.585-.988.125-.31.21-.605.256-.885h-4.95V8.752Z"/>
</svg>
